<svg width="322" height="182" viewBox="0 0 322 182" fill="none" xmlns="http://www.w3.org/2000/svg">
<g id="title art 4">
<g id="title art 3" opacity="0.9">
<rect id="Rectangle 5" width="179.925" height="117" rx="10" fill="#81B622"/>
<path id="Duvernois Elias" d="M23.2942 23.5046C25.5742 23.5046 27.5442 23.9346 29.2042 24.7946C30.8842 25.6346 32.1642 26.8446 33.0442 28.4246C33.9442 30.0046 34.3942 31.8646 34.3942 34.0046C34.3942 36.1446 33.9442 38.0046 33.0442 39.5846C32.1642 41.1446 30.8842 42.3446 29.2042 43.1846C27.5442 44.0046 25.5742 44.4146 23.2942 44.4146H16.7842V23.5046H23.2942ZM23.2942 42.1646C25.9942 42.1646 28.0542 41.4546 29.4742 40.0346C30.8942 38.5946 31.6042 36.5846 31.6042 34.0046C31.6042 31.4046 30.8842 29.3746 29.4442 27.9146C28.0242 26.4546 25.9742 25.7246 23.2942 25.7246H19.5142V42.1646H23.2942ZM52.5752 27.9746V44.4146H49.8452V41.9846C49.3252 42.8246 48.5952 43.4846 47.6552 43.9646C46.7352 44.4246 45.7152 44.6546 44.5952 44.6546C43.3152 44.6546 42.1652 44.3946 41.1452 43.8746C40.1252 43.3346 39.3152 42.5346 38.7152 41.4746C38.1352 40.4146 37.8452 39.1246 37.8452 37.6046V27.9746H40.5452V37.2446C40.5452 38.8646 40.9552 40.1146 41.7752 40.9946C42.5952 41.8546 43.7152 42.2846 45.1352 42.2846C46.5952 42.2846 47.7452 41.8346 48.5852 40.9346C49.4252 40.0346 49.8452 38.7246 49.8452 37.0046V27.9746H52.5752ZM63.3046 41.8946L68.4046 27.9746H71.3146L64.8646 44.4146H61.6846L55.2346 27.9746H58.1746L63.3046 41.8946ZM89.001 35.5646C89.001 36.0846 88.971 36.6346 88.911 37.2146H75.771C75.871 38.8346 76.421 40.1046 77.421 41.0246C78.441 41.9246 79.671 42.3746 81.111 42.3746C82.291 42.3746 83.271 42.1046 84.051 41.5646C84.851 41.0046 85.411 40.2646 85.731 39.3446H88.671C88.231 40.9246 87.351 42.2146 86.031 43.2146C84.711 44.1946 83.071 44.6846 81.111 44.6846C79.551 44.6846 78.151 44.3346 76.911 43.6346C75.691 42.9346 74.731 41.9446 74.031 40.6646C73.331 39.3646 72.981 37.8646 72.981 36.1646C72.981 34.4646 73.321 32.9746 74.001 31.6946C74.681 30.4146 75.631 29.4346 76.851 28.7546C78.091 28.0546 79.511 27.7046 81.111 27.7046C82.671 27.7046 84.051 28.0446 85.251 28.7246C86.451 29.4046 87.371 30.3446 88.011 31.5446C88.671 32.7246 89.001 34.0646 89.001 35.5646ZM86.181 34.9946C86.181 33.9546 85.951 33.0646 85.491 32.3246C85.031 31.5646 84.401 30.9946 83.601 30.6146C82.821 30.2146 81.951 30.0146 80.991 30.0146C79.611 30.0146 78.431 30.4546 77.451 31.3346C76.491 32.2146 75.941 33.4346 75.801 34.9946H86.181ZM95.3346 30.6446C95.8146 29.7046 96.4946 28.9746 97.3746 28.4546C98.2746 27.9346 99.3646 27.6746 100.645 27.6746V30.4946H99.9246C96.8646 30.4946 95.3346 32.1546 95.3346 35.4746V44.4146H92.6046V27.9746H95.3346V30.6446ZM111.806 27.6746C113.806 27.6746 115.426 28.2846 116.666 29.5046C117.906 30.7046 118.526 32.4446 118.526 34.7246V44.4146H115.826V35.1146C115.826 33.4746 115.416 32.2246 114.596 31.3646C113.776 30.4846 112.656 30.0446 111.236 30.0446C109.796 30.0446 108.646 30.4946 107.786 31.3946C106.946 32.2946 106.526 33.6046 106.526 35.3246V44.4146H103.796V27.9746H106.526V30.3146C107.066 29.4746 107.796 28.8246 108.716 28.3646C109.656 27.9046 110.686 27.6746 111.806 27.6746ZM130.155 44.6846C128.615 44.6846 127.215 44.3346 125.955 43.6346C124.715 42.9346 123.735 41.9446 123.015 40.6646C122.315 39.3646 121.965 37.8646 121.965 36.1646C121.965 34.4846 122.325 33.0046 123.045 31.7246C123.785 30.4246 124.785 29.4346 126.045 28.7546C127.305 28.0546 128.715 27.7046 130.275 27.7046C131.835 27.7046 133.245 28.0546 134.505 28.7546C135.765 29.4346 136.755 30.4146 137.475 31.6946C138.215 32.9746 138.585 34.4646 138.585 36.1646C138.585 37.8646 138.205 39.3646 137.445 40.6646C136.705 41.9446 135.695 42.9346 134.415 43.6346C133.135 44.3346 131.715 44.6846 130.155 44.6846ZM130.155 42.2846C131.135 42.2846 132.055 42.0546 132.915 41.5946C133.775 41.1346 134.465 40.4446 134.985 39.5246C135.525 38.6046 135.795 37.4846 135.795 36.1646C135.795 34.8446 135.535 33.7246 135.015 32.8046C134.495 31.8846 133.815 31.2046 132.975 30.7646C132.135 30.3046 131.225 30.0746 130.245 30.0746C129.245 30.0746 128.325 30.3046 127.485 30.7646C126.665 31.2046 126.005 31.8846 125.505 32.8046C125.005 33.7246 124.755 34.8446 124.755 36.1646C124.755 37.5046 124.995 38.6346 125.475 39.5546C125.975 40.4746 126.635 41.1646 127.455 41.6246C128.275 42.0646 129.175 42.2846 130.155 42.2846ZM143.585 25.3046C143.065 25.3046 142.625 25.1246 142.265 24.7646C141.905 24.4046 141.725 23.9646 141.725 23.4446C141.725 22.9246 141.905 22.4846 142.265 22.1246C142.625 21.7646 143.065 21.5846 143.585 21.5846C144.085 21.5846 144.505 21.7646 144.845 22.1246C145.205 22.4846 145.385 22.9246 145.385 23.4446C145.385 23.9646 145.205 24.4046 144.845 24.7646C144.505 25.1246 144.085 25.3046 143.585 25.3046ZM144.905 27.9746V44.4146H142.175V27.9746H144.905ZM155.378 44.6846C154.118 44.6846 152.988 44.4746 151.988 44.0546C150.988 43.6146 150.198 43.0146 149.618 42.2546C149.038 41.4746 148.718 40.5846 148.658 39.5846H151.478C151.558 40.4046 151.938 41.0746 152.618 41.5946C153.318 42.1146 154.228 42.3746 155.348 42.3746C156.388 42.3746 157.208 42.1446 157.808 41.6846C158.408 41.2246 158.708 40.6446 158.708 39.9446C158.708 39.2246 158.388 38.6946 157.748 38.3546C157.108 37.9946 156.118 37.6446 154.778 37.3046C153.558 36.9846 152.558 36.6646 151.778 36.3446C151.018 36.0046 150.358 35.5146 149.798 34.8746C149.258 34.2146 148.988 33.3546 148.988 32.2946C148.988 31.4546 149.238 30.6846 149.738 29.9846C150.238 29.2846 150.948 28.7346 151.868 28.3346C152.788 27.9146 153.838 27.7046 155.018 27.7046C156.838 27.7046 158.308 28.1646 159.428 29.0846C160.548 30.0046 161.148 31.2646 161.228 32.8646H158.498C158.438 32.0046 158.088 31.3146 157.448 30.7946C156.828 30.2746 155.988 30.0146 154.928 30.0146C153.948 30.0146 153.168 30.2246 152.588 30.6446C152.008 31.0646 151.718 31.6146 151.718 32.2946C151.718 32.8346 151.888 33.2846 152.228 33.6446C152.588 33.9846 153.028 34.2646 153.548 34.4846C154.088 34.6846 154.828 34.9146 155.768 35.1746C156.948 35.4946 157.908 35.8146 158.648 36.1346C159.388 36.4346 160.018 36.8946 160.538 37.5146C161.078 38.1346 161.358 38.9446 161.378 39.9446C161.378 40.8446 161.128 41.6546 160.628 42.3746C160.128 43.0946 159.418 43.6646 158.498 44.0846C157.598 44.4846 156.558 44.6846 155.378 44.6846ZM19.5142 70.7246V77.7146H27.1342V79.9646H19.5142V87.1646H28.0342V89.4146H16.7842V68.4746H28.0342V70.7246H19.5142ZM34.8951 67.2146V89.4146H32.1651V67.2146H34.8951ZM40.9579 70.3046C40.4379 70.3046 39.9979 70.1246 39.6379 69.7646C39.2779 69.4046 39.0979 68.9646 39.0979 68.4446C39.0979 67.9246 39.2779 67.4846 39.6379 67.1246C39.9979 66.7646 40.4379 66.5846 40.9579 66.5846C41.4579 66.5846 41.8779 66.7646 42.2179 67.1246C42.5779 67.4846 42.7579 67.9246 42.7579 68.4446C42.7579 68.9646 42.5779 69.4046 42.2179 69.7646C41.8779 70.1246 41.4579 70.3046 40.9579 70.3046ZM42.2779 72.9746V89.4146H39.5479V72.9746H42.2779ZM45.9107 81.1346C45.9107 79.4546 46.2507 77.9846 46.9307 76.7246C47.6107 75.4446 48.5407 74.4546 49.7207 73.7546C50.9207 73.0546 52.2507 72.7046 53.7107 72.7046C55.1507 72.7046 56.4007 73.0146 57.4607 73.6346C58.5207 74.2546 59.3107 75.0346 59.8307 75.9746V72.9746H62.5907V89.4146H59.8307V86.3546C59.2907 87.3146 58.4807 88.1146 57.4007 88.7546C56.3407 89.3746 55.1007 89.6846 53.6807 89.6846C52.2207 89.6846 50.9007 89.3246 49.7207 88.6046C48.5407 87.8846 47.6107 86.8746 46.9307 85.5746C46.2507 84.2746 45.9107 82.7946 45.9107 81.1346ZM59.8307 81.1646C59.8307 79.9246 59.5807 78.8446 59.0807 77.9246C58.5807 77.0046 57.9007 76.3046 57.0407 75.8246C56.2007 75.3246 55.2707 75.0746 54.2507 75.0746C53.2307 75.0746 52.3007 75.3146 51.4607 75.7946C50.6207 76.2746 49.9507 76.9746 49.4507 77.8946C48.9507 78.8146 48.7007 79.8946 48.7007 81.1346C48.7007 82.3946 48.9507 83.4946 49.4507 84.4346C49.9507 85.3546 50.6207 86.0646 51.4607 86.5646C52.3007 87.0446 53.2307 87.2846 54.2507 87.2846C55.2707 87.2846 56.2007 87.0446 57.0407 86.5646C57.9007 86.0646 58.5807 85.3546 59.0807 84.4346C59.5807 83.4946 59.8307 82.4046 59.8307 81.1646ZM73.0242 89.6846C71.7642 89.6846 70.6342 89.4746 69.6342 89.0546C68.6342 88.6146 67.8442 88.0146 67.2642 87.2546C66.6842 86.4746 66.3642 85.5846 66.3042 84.5846H69.1242C69.2042 85.4046 69.5842 86.0746 70.2642 86.5946C70.9642 87.1146 71.8742 87.3746 72.9942 87.3746C74.0342 87.3746 74.8542 87.1446 75.4542 86.6846C76.0542 86.2246 76.3542 85.6446 76.3542 84.9446C76.3542 84.2246 76.0342 83.6946 75.3942 83.3546C74.7542 82.9946 73.7642 82.6446 72.4242 82.3046C71.2042 81.9846 70.2042 81.6646 69.4242 81.3446C68.6642 81.0046 68.0042 80.5146 67.4442 79.8746C66.9042 79.2146 66.6342 78.3546 66.6342 77.2946C66.6342 76.4546 66.8842 75.6846 67.3842 74.9846C67.8842 74.2846 68.5942 73.7346 69.5142 73.3346C70.4342 72.9146 71.4842 72.7046 72.6642 72.7046C74.4842 72.7046 75.9542 73.1646 77.0742 74.0846C78.1942 75.0046 78.7942 76.2646 78.8742 77.8646H76.1442C76.0842 77.0046 75.7342 76.3146 75.0942 75.7946C74.4742 75.2746 73.6342 75.0146 72.5742 75.0146C71.5942 75.0146 70.8142 75.2246 70.2342 75.6446C69.6542 76.0646 69.3642 76.6146 69.3642 77.2946C69.3642 77.8346 69.5342 78.2846 69.8742 78.6446C70.2342 78.9846 70.6742 79.2646 71.1942 79.4846C71.7342 79.6846 72.4742 79.9146 73.4142 80.1746C74.5942 80.4946 75.5542 80.8146 76.2942 81.1346C77.0342 81.4346 77.6642 81.8946 78.1842 82.5146C78.7242 83.1346 79.0042 83.9446 79.0242 84.9446C79.0242 85.8446 78.7742 86.6546 78.2742 87.3746C77.7742 88.0946 77.0642 88.6646 76.1442 89.0846C75.2442 89.4846 74.2042 89.6846 73.0242 89.6846Z" fill="white"/>
</g>
<rect id="Rectangle 6" x="90" y="58" width="231.623" height="124" rx="10" fill="#ECF87F"/>
<path id="Developpeur Web junior" d="M114.958 87.4872C117.178 87.4872 119.118 87.9272 120.778 88.8072C122.438 89.6872 123.718 90.9272 124.618 92.5272C125.538 94.1072 125.998 95.9372 125.998 98.0172C125.998 100.077 125.538 101.907 124.618 103.507C123.718 105.107 122.428 106.347 120.748 107.227C119.088 108.107 117.158 108.547 114.958 108.547H107.068V87.4872H114.958ZM114.628 104.107C116.568 104.107 118.078 103.577 119.158 102.517C120.238 101.457 120.778 99.9572 120.778 98.0172C120.778 96.0772 120.238 94.5672 119.158 93.4872C118.078 92.4072 116.568 91.8672 114.628 91.8672H112.198V104.107H114.628ZM144.644 99.9072C144.644 100.387 144.614 100.887 144.554 101.407H132.944C133.024 102.447 133.354 103.247 133.934 103.807C134.534 104.347 135.264 104.617 136.124 104.617C137.404 104.617 138.294 104.077 138.794 102.997H144.254C143.974 104.097 143.464 105.087 142.724 105.967C142.004 106.847 141.094 107.537 139.994 108.037C138.894 108.537 137.664 108.787 136.304 108.787C134.664 108.787 133.204 108.437 131.924 107.737C130.644 107.037 129.644 106.037 128.924 104.737C128.204 103.437 127.844 101.917 127.844 100.177C127.844 98.4372 128.194 96.9172 128.894 95.6172C129.614 94.3172 130.614 93.3172 131.894 92.6172C133.174 91.9172 134.644 91.5672 136.304 91.5672C137.924 91.5672 139.364 91.9072 140.624 92.5872C141.884 93.2672 142.864 94.2372 143.564 95.4972C144.284 96.7572 144.644 98.2272 144.644 99.9072ZM139.394 98.5572C139.394 97.6772 139.094 96.9772 138.494 96.4572C137.894 95.9372 137.144 95.6772 136.244 95.6772C135.384 95.6772 134.654 95.9272 134.054 96.4272C133.474 96.9272 133.114 97.6372 132.974 98.5572H139.394ZM154.881 103.747L158.511 91.8072H163.971L158.031 108.547H151.701L145.761 91.8072H151.251L154.881 103.747ZM181.91 99.9072C181.91 100.387 181.88 100.887 181.82 101.407H170.21C170.29 102.447 170.62 103.247 171.2 103.807C171.8 104.347 172.53 104.617 173.39 104.617C174.67 104.617 175.56 104.077 176.06 102.997H181.52C181.24 104.097 180.73 105.087 179.99 105.967C179.27 106.847 178.36 107.537 177.26 108.037C176.16 108.537 174.93 108.787 173.57 108.787C171.93 108.787 170.47 108.437 169.19 107.737C167.91 107.037 166.91 106.037 166.19 104.737C165.47 103.437 165.11 101.917 165.11 100.177C165.11 98.4372 165.46 96.9172 166.16 95.6172C166.88 94.3172 167.88 93.3172 169.16 92.6172C170.44 91.9172 171.91 91.5672 173.57 91.5672C175.19 91.5672 176.63 91.9072 177.89 92.5872C179.15 93.2672 180.13 94.2372 180.83 95.4972C181.55 96.7572 181.91 98.2272 181.91 99.9072ZM176.66 98.5572C176.66 97.6772 176.36 96.9772 175.76 96.4572C175.16 95.9372 174.41 95.6772 173.51 95.6772C172.65 95.6772 171.92 95.9272 171.32 96.4272C170.74 96.9272 170.38 97.6372 170.24 98.5572H176.66ZM189.746 86.3472V108.547H184.616V86.3472H189.746ZM201.084 108.787C199.444 108.787 197.964 108.437 196.644 107.737C195.344 107.037 194.314 106.037 193.554 104.737C192.814 103.437 192.444 101.917 192.444 100.177C192.444 98.4572 192.824 96.9472 193.584 95.6472C194.344 94.3272 195.384 93.3172 196.704 92.6172C198.024 91.9172 199.504 91.5672 201.144 91.5672C202.784 91.5672 204.264 91.9172 205.584 92.6172C206.904 93.3172 207.944 94.3272 208.704 95.6472C209.464 96.9472 209.844 98.4572 209.844 100.177C209.844 101.897 209.454 103.417 208.674 104.737C207.914 106.037 206.864 107.037 205.524 107.737C204.204 108.437 202.724 108.787 201.084 108.787ZM201.084 104.347C202.064 104.347 202.894 103.987 203.574 103.267C204.274 102.547 204.624 101.517 204.624 100.177C204.624 98.8372 204.284 97.8072 203.604 97.0872C202.944 96.3672 202.124 96.0072 201.144 96.0072C200.144 96.0072 199.314 96.3672 198.654 97.0872C197.994 97.7872 197.664 98.8172 197.664 100.177C197.664 101.517 197.984 102.547 198.624 103.267C199.284 103.987 200.104 104.347 201.084 104.347ZM217.696 94.1772C218.196 93.3972 218.886 92.7672 219.766 92.2872C220.646 91.8072 221.676 91.5672 222.856 91.5672C224.236 91.5672 225.486 91.9172 226.606 92.6172C227.726 93.3172 228.606 94.3172 229.246 95.6172C229.906 96.9172 230.236 98.4272 230.236 100.147C230.236 101.867 229.906 103.387 229.246 104.707C228.606 106.007 227.726 107.017 226.606 107.737C225.486 108.437 224.236 108.787 222.856 108.787C221.696 108.787 220.666 108.547 219.766 108.067C218.886 107.587 218.196 106.967 217.696 106.207V116.527H212.566V91.8072H217.696V94.1772ZM225.016 100.147C225.016 98.8672 224.656 97.8672 223.936 97.1472C223.236 96.4072 222.366 96.0372 221.326 96.0372C220.306 96.0372 219.436 96.4072 218.716 97.1472C218.016 97.8872 217.666 98.8972 217.666 100.177C217.666 101.457 218.016 102.467 218.716 103.207C219.436 103.947 220.306 104.317 221.326 104.317C222.346 104.317 223.216 103.947 223.936 103.207C224.656 102.447 225.016 101.427 225.016 100.147ZM238.057 94.1772C238.557 93.3972 239.247 92.7672 240.127 92.2872C241.007 91.8072 242.037 91.5672 243.217 91.5672C244.597 91.5672 245.847 91.9172 246.967 92.6172C248.087 93.3172 248.967 94.3172 249.607 95.6172C250.267 96.9172 250.597 98.4272 250.597 100.147C250.597 101.867 250.267 103.387 249.607 104.707C248.967 106.007 248.087 107.017 246.967 107.737C245.847 108.437 244.597 108.787 243.217 108.787C242.057 108.787 241.027 108.547 240.127 108.067C239.247 107.587 238.557 106.967 238.057 106.207V116.527H232.927V91.8072H238.057V94.1772ZM245.377 100.147C245.377 98.8672 245.017 97.8672 244.297 97.1472C243.597 96.4072 242.727 96.0372 241.687 96.0372C240.667 96.0372 239.797 96.4072 239.077 97.1472C238.377 97.8872 238.027 98.8972 238.027 100.177C238.027 101.457 238.377 102.467 239.077 103.207C239.797 103.947 240.667 104.317 241.687 104.317C242.707 104.317 243.577 103.947 244.297 103.207C245.017 102.447 245.377 101.427 245.377 100.147ZM269.068 99.9072C269.068 100.387 269.038 100.887 268.978 101.407H257.368C257.448 102.447 257.778 103.247 258.358 103.807C258.958 104.347 259.688 104.617 260.548 104.617C261.828 104.617 262.718 104.077 263.218 102.997H268.678C268.398 104.097 267.888 105.087 267.148 105.967C266.428 106.847 265.518 107.537 264.418 108.037C263.318 108.537 262.088 108.787 260.728 108.787C259.088 108.787 257.628 108.437 256.348 107.737C255.068 107.037 254.068 106.037 253.348 104.737C252.628 103.437 252.268 101.917 252.268 100.177C252.268 98.4372 252.618 96.9172 253.318 95.6172C254.038 94.3172 255.038 93.3172 256.318 92.6172C257.598 91.9172 259.068 91.5672 260.728 91.5672C262.348 91.5672 263.788 91.9072 265.048 92.5872C266.308 93.2672 267.288 94.2372 267.988 95.4972C268.708 96.7572 269.068 98.2272 269.068 99.9072ZM263.818 98.5572C263.818 97.6772 263.518 96.9772 262.918 96.4572C262.318 95.9372 261.568 95.6772 260.668 95.6772C259.808 95.6772 259.078 95.9272 258.478 96.4272C257.898 96.9272 257.538 97.6372 257.398 98.5572H263.818ZM288.305 91.8072V108.547H283.175V106.267C282.655 107.007 281.945 107.607 281.045 108.067C280.165 108.507 279.185 108.727 278.105 108.727C276.825 108.727 275.695 108.447 274.715 107.887C273.735 107.307 272.975 106.477 272.435 105.397C271.895 104.317 271.625 103.047 271.625 101.587V91.8072H276.725V100.897C276.725 102.017 277.015 102.887 277.595 103.507C278.175 104.127 278.955 104.437 279.935 104.437C280.935 104.437 281.725 104.127 282.305 103.507C282.885 102.887 283.175 102.017 283.175 100.897V91.8072H288.305ZM297.119 94.5972C297.719 93.6772 298.469 92.9572 299.369 92.4372C300.269 91.8972 301.269 91.6272 302.369 91.6272V97.0572H300.959C299.679 97.0572 298.719 97.3372 298.079 97.8972C297.439 98.4372 297.119 99.3972 297.119 100.777V108.547H291.989V91.8072H297.119V94.5972ZM136.048 132.487L130.558 153.547H124.348L120.988 139.687L117.508 153.547H111.298L105.958 132.487H111.448L114.478 147.817L118.228 132.487H123.868L127.468 147.817L130.528 132.487H136.048ZM154.4 144.907C154.4 145.387 154.37 145.887 154.31 146.407H142.7C142.78 147.447 143.11 148.247 143.69 148.807C144.29 149.347 145.02 149.617 145.88 149.617C147.16 149.617 148.05 149.077 148.55 147.997H154.01C153.73 149.097 153.22 150.087 152.48 150.967C151.76 151.847 150.85 152.537 149.75 153.037C148.65 153.537 147.42 153.787 146.06 153.787C144.42 153.787 142.96 153.437 141.68 152.737C140.4 152.037 139.4 151.037 138.68 149.737C137.96 148.437 137.6 146.917 137.6 145.177C137.6 143.437 137.95 141.917 138.65 140.617C139.37 139.317 140.37 138.317 141.65 137.617C142.93 136.917 144.4 136.567 146.06 136.567C147.68 136.567 149.12 136.907 150.38 137.587C151.64 138.267 152.62 139.237 153.32 140.497C154.04 141.757 154.4 143.227 154.4 144.907ZM149.15 143.557C149.15 142.677 148.85 141.977 148.25 141.457C147.65 140.937 146.9 140.677 146 140.677C145.14 140.677 144.41 140.927 143.81 141.427C143.23 141.927 142.87 142.637 142.73 143.557H149.15ZM162.237 139.177C162.717 138.397 163.407 137.767 164.307 137.287C165.207 136.807 166.237 136.567 167.397 136.567C168.777 136.567 170.027 136.917 171.147 137.617C172.267 138.317 173.147 139.317 173.787 140.617C174.447 141.917 174.777 143.427 174.777 145.147C174.777 146.867 174.447 148.387 173.787 149.707C173.147 151.007 172.267 152.017 171.147 152.737C170.027 153.437 168.777 153.787 167.397 153.787C166.217 153.787 165.187 153.557 164.307 153.097C163.427 152.617 162.737 151.987 162.237 151.207V153.547H157.107V131.347H162.237V139.177ZM169.557 145.147C169.557 143.867 169.197 142.867 168.477 142.147C167.777 141.407 166.907 141.037 165.867 141.037C164.847 141.037 163.977 141.407 163.257 142.147C162.557 142.887 162.207 143.897 162.207 145.177C162.207 146.457 162.557 147.467 163.257 148.207C163.977 148.947 164.847 149.317 165.867 149.317C166.887 149.317 167.757 148.947 168.477 148.207C169.197 147.447 169.557 146.427 169.557 145.147ZM186.375 135.067C185.475 135.067 184.735 134.807 184.155 134.287C183.595 133.747 183.315 133.087 183.315 132.307C183.315 131.507 183.595 130.847 184.155 130.327C184.735 129.787 185.475 129.517 186.375 129.517C187.255 129.517 187.975 129.787 188.535 130.327C189.115 130.847 189.405 131.507 189.405 132.307C189.405 133.087 189.115 133.747 188.535 134.287C187.975 134.807 187.255 135.067 186.375 135.067ZM188.955 155.707C188.955 157.767 188.435 159.247 187.395 160.147C186.355 161.067 184.905 161.527 183.045 161.527H181.035V157.177H182.265C182.825 157.177 183.225 157.067 183.465 156.847C183.705 156.627 183.825 156.267 183.825 155.767V136.807H188.955V155.707ZM209.174 136.807V153.547H204.044V151.267C203.524 152.007 202.814 152.607 201.914 153.067C201.034 153.507 200.054 153.727 198.974 153.727C197.694 153.727 196.564 153.447 195.584 152.887C194.604 152.307 193.844 151.477 193.304 150.397C192.764 149.317 192.494 148.047 192.494 146.587V136.807H197.594V145.897C197.594 147.017 197.884 147.887 198.464 148.507C199.044 149.127 199.824 149.437 200.804 149.437C201.804 149.437 202.594 149.127 203.174 148.507C203.754 147.887 204.044 147.017 204.044 145.897V136.807H209.174ZM223.059 136.627C225.019 136.627 226.579 137.267 227.739 138.547C228.919 139.807 229.509 141.547 229.509 143.767V153.547H224.409V144.457C224.409 143.337 224.119 142.467 223.539 141.847C222.959 141.227 222.179 140.917 221.199 140.917C220.219 140.917 219.439 141.227 218.859 141.847C218.279 142.467 217.989 143.337 217.989 144.457V153.547H212.859V136.807H217.989V139.027C218.509 138.287 219.209 137.707 220.089 137.287C220.969 136.847 221.959 136.627 223.059 136.627ZM235.653 135.067C234.753 135.067 234.013 134.807 233.433 134.287C232.873 133.747 232.593 133.087 232.593 132.307C232.593 131.507 232.873 130.847 233.433 130.327C234.013 129.787 234.753 129.517 235.653 129.517C236.533 129.517 237.253 129.787 237.813 130.327C238.393 130.847 238.683 131.507 238.683 132.307C238.683 133.087 238.393 133.747 237.813 134.287C237.253 134.807 236.533 135.067 235.653 135.067ZM238.203 136.807V153.547H233.073V136.807H238.203ZM249.541 153.787C247.901 153.787 246.421 153.437 245.101 152.737C243.801 152.037 242.771 151.037 242.011 149.737C241.271 148.437 240.901 146.917 240.901 145.177C240.901 143.457 241.281 141.947 242.041 140.647C242.801 139.327 243.841 138.317 245.161 137.617C246.481 136.917 247.961 136.567 249.601 136.567C251.241 136.567 252.721 136.917 254.041 137.617C255.361 138.317 256.401 139.327 257.161 140.647C257.921 141.947 258.301 143.457 258.301 145.177C258.301 146.897 257.911 148.417 257.131 149.737C256.371 151.037 255.321 152.037 253.981 152.737C252.661 153.437 251.181 153.787 249.541 153.787ZM249.541 149.347C250.521 149.347 251.351 148.987 252.031 148.267C252.731 147.547 253.081 146.517 253.081 145.177C253.081 143.837 252.741 142.807 252.061 142.087C251.401 141.367 250.581 141.007 249.601 141.007C248.601 141.007 247.771 141.367 247.111 142.087C246.451 142.787 246.121 143.817 246.121 145.177C246.121 146.517 246.441 147.547 247.081 148.267C247.741 148.987 248.561 149.347 249.541 149.347ZM266.153 139.597C266.753 138.677 267.503 137.957 268.403 137.437C269.303 136.897 270.303 136.627 271.403 136.627V142.057H269.993C268.713 142.057 267.753 142.337 267.113 142.897C266.473 143.437 266.153 144.397 266.153 145.777V153.547H261.023V136.807H266.153V139.597Z" fill="#81B622"/>
</g>
</svg>
